<?xml version="1.0" encoding="UTF-8" standalone="no"?>
<!-- Created with Inkscape (http://www.inkscape.org/) -->

<svg
   width="210mm"
   height="297mm"
   viewBox="0 0 210 297"
   version="1.1"
   id="svg8"
   inkscape:version="1.2 (dc2aedaf03, 2022-05-15)"
   sodipodi:docname="drawing.svg"
   xmlns:inkscape="http://www.inkscape.org/namespaces/inkscape"
   xmlns:sodipodi="http://sodipodi.sourceforge.net/DTD/sodipodi-0.dtd"
   xmlns="http://www.w3.org/2000/svg"
   xmlns:svg="http://www.w3.org/2000/svg"
   xmlns:rdf="http://www.w3.org/1999/02/22-rdf-syntax-ns#"
   xmlns:cc="http://creativecommons.org/ns#"
   xmlns:dc="http://purl.org/dc/elements/1.1/">
  <sodipodi:namedview
     id="base"
     pagecolor="#ffffff"
     bordercolor="#666666"
     borderopacity="1.0"
     inkscape:pageopacity="0.0"
     inkscape:pageshadow="2"
     inkscape:zoom="0.98994949"
     inkscape:cx="312.64221"
     inkscape:cy="272.74119"
     inkscape:document-units="mm"
     inkscape:current-layer="layer1"
     showgrid="false"
     inkscape:window-width="2560"
     inkscape:window-height="1377"
     inkscape:window-x="1912"
     inkscape:window-y="-8"
     inkscape:window-maximized="1"
     inkscape:showpageshadow="2"
     inkscape:pagecheckerboard="0"
     inkscape:deskcolor="#d1d1d1" />
  <defs
     id="defs2">
    <marker
       style="overflow:visible"
       id="Arrow3"
       refX="0"
       refY="0"
       orient="auto-start-reverse"
       inkscape:stockid="Arrow3"
       markerWidth="4.2071066"
       markerHeight="7"
       viewBox="0 0 4.2071068 7"
       inkscape:isstock="true"
       inkscape:collect="always"
       preserveAspectRatio="xMidYMid">
      <path
         style="fill:none;stroke:context-stroke;stroke-width:1;stroke-linecap:round"
         d="M 3,-3 0,0 3,3"
         id="arrow3"
         transform="rotate(180,0.125,0)"
         sodipodi:nodetypes="ccc" />
    </marker>
    <rect
       x="202.03051"
       y="159.6041"
       width="114.65231"
       height="34.850263"
       id="rect4239" />
    <marker
       style="overflow:visible"
       id="marker1409"
       refX="0"
       refY="0"
       orient="auto-start-reverse"
       inkscape:stockid="TriangleStart"
       markerWidth="5.3244081"
       markerHeight="6.155385"
       viewBox="0 0 5.3244081 6.1553851"
       inkscape:isstock="true"
       inkscape:collect="always"
       preserveAspectRatio="xMidYMid">
      <path
         transform="scale(0.5)"
         style="fill:context-stroke;fill-rule:evenodd;stroke:context-stroke;stroke-width:1pt"
         d="M 5.77,0 -2.88,5 V -5 Z"
         id="path1407" />
    </marker>
    <marker
       style="overflow:visible"
       id="TriangleStart"
       refX="0"
       refY="0"
       orient="auto-start-reverse"
       inkscape:stockid="TriangleStart"
       markerWidth="5.3244081"
       markerHeight="6.155385"
       viewBox="0 0 5.3244081 6.1553851"
       inkscape:isstock="true"
       inkscape:collect="always"
       preserveAspectRatio="xMidYMid">
      <path
         transform="scale(0.5)"
         style="fill:context-stroke;fill-rule:evenodd;stroke:context-stroke;stroke-width:1pt"
         d="M 5.77,0 -2.88,5 V -5 Z"
         id="path135" />
    </marker>
    <marker
       inkscape:stockid="Arrow2Mstart"
       orient="auto"
       refY="0"
       refX="0"
       id="marker5665"
       style="overflow:visible"
       inkscape:isstock="true"
       viewBox="0 0 6.9304588 5.1962256"
       markerWidth="6.9304585"
       markerHeight="5.1962256"
       preserveAspectRatio="xMidYMid">
      <path
         id="path5663"
         style="fill:#000000;fill-opacity:1;fill-rule:evenodd;stroke:#000000;stroke-width:0.625;stroke-linejoin:round;stroke-opacity:1"
         d="M 8.7185878,4.0337352 -2.2072895,0.01601326 8.7185884,-4.0017078 c -1.7454984,2.3720609 -1.7354408,5.6174519 -6e-7,8.035443 z"
         transform="scale(0.6)" />
    </marker>
    <marker
       inkscape:stockid="Arrow2Lstart"
       orient="auto"
       refY="0.0"
       refX="0.0"
       id="Arrow2Lstart"
       style="overflow:visible"
       inkscape:isstock="true">
      <path
         id="path5161"
         style="fill-rule:evenodd;stroke-width:0.625;stroke-linejoin:round;stroke:#000000;stroke-opacity:1;fill:#000000;fill-opacity:1"
         d="M 8.7185878,4.0337352 L -2.2072895,0.016013256 L 8.7185884,-4.0017078 C 6.9730900,-1.6296469 6.9831476,1.6157441 8.7185878,4.0337352 z "
         transform="scale(1.1) translate(1,0)" />
    </marker>
    <marker
       inkscape:stockid="Arrow2Sstart"
       orient="auto"
       refY="0.0"
       refX="0.0"
       id="Arrow2Sstart"
       style="overflow:visible"
       inkscape:isstock="true">
      <path
         id="path5173"
         style="fill-rule:evenodd;stroke-width:0.625;stroke-linejoin:round;stroke:#000000;stroke-opacity:1;fill:#000000;fill-opacity:1"
         d="M 8.7185878,4.0337352 L -2.2072895,0.016013256 L 8.7185884,-4.0017078 C 6.9730900,-1.6296469 6.9831476,1.6157441 8.7185878,4.0337352 z "
         transform="scale(0.3) translate(-2.3,0)" />
    </marker>
    <marker
       inkscape:stockid="Arrow1Lstart"
       orient="auto"
       refY="0.0"
       refX="0.0"
       id="marker5441"
       style="overflow:visible"
       inkscape:isstock="true">
      <path
         id="path5439"
         d="M 0.0,0.0 L 5.0,-5.0 L -12.5,0.0 L 5.0,5.0 L 0.0,0.0 z "
         style="fill-rule:evenodd;stroke:#000000;stroke-width:1pt;stroke-opacity:1;fill:#000000;fill-opacity:1"
         transform="scale(0.8) translate(12.5,0)" />
    </marker>
    <marker
       inkscape:stockid="Arrow2Mstart"
       orient="auto"
       refY="0.0"
       refX="0.0"
       id="Arrow2Mstart"
       style="overflow:visible"
       inkscape:isstock="true">
      <path
         id="path5167"
         style="fill-rule:evenodd;stroke-width:0.625;stroke-linejoin:round;stroke:#000000;stroke-opacity:1;fill:#000000;fill-opacity:1"
         d="M 8.7185878,4.0337352 L -2.2072895,0.016013256 L 8.7185884,-4.0017078 C 6.9730900,-1.6296469 6.9831476,1.6157441 8.7185878,4.0337352 z "
         transform="scale(0.6) translate(0,0)" />
    </marker>
    <marker
       inkscape:stockid="Arrow1Lstart"
       orient="auto"
       refY="0.0"
       refX="0.0"
       id="Arrow1Lstart"
       style="overflow:visible"
       inkscape:isstock="true">
      <path
         id="path5143"
         d="M 0.0,0.0 L 5.0,-5.0 L -12.5,0.0 L 5.0,5.0 L 0.0,0.0 z "
         style="fill-rule:evenodd;stroke:#000000;stroke-width:1pt;stroke-opacity:1;fill:#000000;fill-opacity:1"
         transform="scale(0.8) translate(12.5,0)" />
    </marker>
    <inkscape:perspective
       id="perspective548"
       inkscape:persp3d-origin="105 : 99 : 1"
       inkscape:vp_z="210 : 148.5 : 1"
       inkscape:vp_y="0 : 1000 : 0"
       inkscape:vp_x="-37.041666 : 186.29762 : 1"
       sodipodi:type="inkscape:persp3d" />
  </defs>
  <metadata
     id="metadata5">
    <rdf:RDF>
      <cc:Work
         rdf:about="">
        <dc:format>image/svg+xml</dc:format>
        <dc:type
           rdf:resource="http://purl.org/dc/dcmitype/StillImage" />
      </cc:Work>
    </rdf:RDF>
  </metadata>
  <g
     id="layer1"
     inkscape:groupmode="layer"
     inkscape:label="Layer 1">
    <path
       style="fill:none;stroke:#000000;stroke-width:0.451291;stroke-linecap:round;stroke-linejoin:round;stroke-miterlimit:4;stroke-dasharray:none;stroke-opacity:1;marker-start:url(#marker1409);marker-end:url(#TriangleStart)"
       d="m 93.857659,57.457803 c 0.120218,0.228958 0.240437,0.456953 0.360694,0.683993 0.120218,0.227032 0.240436,0.45312 0.360693,0.678242 0.120219,0.225106 0.240437,0.449272 0.360694,0.672475 0.120218,0.223219 0.240437,0.445448 0.360693,0.666737 0.12018,0.221292 0.240437,0.44161 0.360694,0.660981 0.12018,0.219367 0.240475,0.437778 0.360694,0.655227 0.12018,0.217441 0.240475,0.43393 0.360693,0.649464 0.12018,0.215553 0.240437,0.430109 0.360655,0.643721 0.120296,0.213628 0.240476,0.426273 0.360694,0.63797 0.12018,0.211702 0.240437,0.42244 0.360694,0.632219 0.12018,0.209776 0.240436,0.4186 0.360655,0.626465 0.12018,0.207849 0.240475,0.414763 0.360694,0.62071 0.120179,0.205962 0.240436,0.41093 0.360693,0.614958 0.12018,0.204036 0.240437,0.407094 0.360655,0.609204 0.12018,0.202111 0.240476,0.403262 0.360694,0.603453 0.12018,0.200185 0.240437,0.399425 0.360694,0.597699 0.120179,0.198258 0.240475,0.395588 0.360693,0.591959 0.120185,0.196371 0.240435,0.391751 0.360695,0.586192 0.12018,0.194445 0.24044,0.387919 0.36065,0.580438 0.12018,0.192519 0.24048,0.384075 0.3607,0.574687 0.12018,0.190593 0.24043,0.380262 0.36069,0.568936 0.12018,0.188706 0.24044,0.37641 0.36066,0.563193 0.12018,0.18678 0.24047,0.372558 0.36069,0.557427 0.12018,0.184853 0.24044,0.368744 0.36066,0.551675 0.12029,0.182928 0.24047,0.364893 0.36069,0.545937 0.12018,0.181001 0.24047,0.361078 0.36069,0.540166 0.12018,0.179114 0.24044,0.357227 0.36066,0.534419 0.12029,0.177188 0.24047,0.353413 0.36069,0.528672 0.12018,0.175262 0.24044,0.349561 0.36069,0.522913 0.12018,0.173336 0.24044,0.345748 0.36066,0.517166 0.12018,0.171449 0.24048,0.341896 0.36069,0.511404 0.12018,0.169523 0.24044,0.338083 0.3607,0.505664 0.12018,0.167597 0.24043,0.334231 0.36069,0.499899 0.12018,0.165671 0.24048,0.330417 0.36069,0.494158 0.12018,0.163745 0.24044,0.326566 0.3607,0.488404 0.12018,0.161858 0.24047,0.322714 0.36069,0.482638 0.12018,0.159932 0.24048,0.3189 0.3607,0.476898 0.12018,0.158006 0.24043,0.315049 0.36069,0.471148 0.12018,0.156079 0.24047,0.311196 0.36069,0.465381 0.12018,0.154192 0.24044,0.307383 0.3607,0.459638 0.12018,0.152266 0.24043,0.303569 0.36069,0.453887 0.12018,0.15034 0.24048,0.299717 0.36069,0.448132 0.12018,0.148414 0.24044,0.295866 0.3607,0.442381 0.12018,0.146488 0.24043,0.292052 0.36069,0.436627 0.12018,0.144601 0.24048,0.2882 0.36069,0.430864 0.12018,0.142675 0.24044,0.284387 0.3607,0.42512 0.12018,0.140749 0.24047,0.280536 0.36069,0.419366 0.12018,0.138862 0.24044,0.276722 0.3607,0.413619 0.12018,0.136936 0.24043,0.27287 0.36069,0.407861 0.12018,0.13501 0.24047,0.269056 0.36069,0.402109 0.12018,0.133084 0.24044,0.265205 0.3607,0.396359 0.12018,0.131158 0.24043,0.261352 0.36069,0.390615 0.12018,0.129232 0.24048,0.257501 0.36069,0.384845 0.12018,0.127345 0.24044,0.253688 0.3607,0.379106 0.12018,0.125419 0.24043,0.249874 0.36069,0.373328 0.12018,0.123493 0.24048,0.246022 0.36069,0.367589 0.12018,0.121566 0.24044,0.24217 0.3607,0.361849 0.12029,0.11964 0.24047,0.238357 0.36069,0.356071 0.12018,0.117753 0.24044,0.234505 0.3607,0.350332 0.12018,0.115827 0.24043,0.230692 0.36065,0.344593 0.12018,0.113901 0.24048,0.226839 0.36069,0.338853 0.12018,0.111975 0.24044,0.223026 0.3607,0.333075 0.12018,0.110088 0.24043,0.219175 0.36065,0.327336 0.12018,0.108162 0.24048,0.215323 0.3607,0.321559 0.12018,0.106236 0.24043,0.211508 0.36065,0.315818 0.12018,0.10431 0.24048,0.207657 0.3607,0.31008 0.12018,0.102384 0.24047,0.203843 0.36069,0.304301 0.12018,0.100497 0.24044,0.199992 0.36065,0.298563 0.12018,0.09857 0.24048,0.196178 0.3607,0.292822 0.12018,0.09664 0.24043,0.192327 0.36069,0.287045 0.12018,0.09472 0.24044,0.188513 0.36066,0.281306 0.12018,0.09283 0.24047,0.184661 0.36069,0.275566 0.12018,0.09091 0.24044,0.180809 0.36069,0.269789 0.12018,0.08898 0.24044,0.176995 0.36066,0.264049 0.12018,0.08705 0.24047,0.173143 0.36069,0.258309 0.12018,0.08517 0.24044,0.169331 0.3607,0.252532 0.12029,0.08324 0.24047,0.165478 0.36069,0.246792 0.12018,0.08131 0.24048,0.161627 0.36069,0.241053 0.12018,0.07939 0.24044,0.157814 0.3607,0.235276 0.12018,0.07746 0.24047,0.153961 0.36069,0.229535 0.12018,0.07554 0.24044,0.150148 0.36069,0.223797 0.12018,0.07365 0.24044,0.146296 0.3607,0.218019 0.12018,0.07172 0.24047,0.142482 0.36069,0.212279 0.12018,0.0698 0.24044,0.13863 0.3607,0.206501 0.12018,0.06787 0.24043,0.134817 0.36069,0.200762 0.12018,0.06598 0.24047,0.130965 0.36069,0.195023 0.12018,0.06406 0.24044,0.127074 0.3607,0.189244 0.12018,0.06213 0.24047,0.123223 0.36069,0.183506 0.12018,0.0602 0.24044,0.119409 0.36069,0.177766 0.12018,0.05828 0.24044,0.115557 0.3607,0.171988 0.12029,0.05639 0.24047,0.111744 0.36069,0.166249 0.12018,0.05447 0.24044,0.108046 0.36069,0.160509 0.12018,0.05254 0.24044,0.104079 0.3607,0.154732 0.12018,0.05061 0.24047,0.100227 0.36069,0.148992 0.12018,0.04869 0.24044,0.09637 0.36066,0.143253 0.12029,0.0468 0.24047,0.09268 0.36069,0.137513 0.12018,0.04488 0.24048,0.08871 0.36069,0.131736 0.12018,0.04295 0.24044,0.08501 0.36066,0.125919 0.12018,0.04102 0.24047,0.08105 0.36069,0.12018 0.12018,0.03914 0.24044,0.07735 0.3607,0.114402 0.12018,0.03736 0.24043,0.07338 0.36065,0.108663 0.12018,0.03544 0.24048,0.06953 0.3607,0.102923 0.12018,0.03351 0.24043,0.06571 0.36069,0.09714 0.12018,0.03159 0.24044,0.06202 0.36069,0.09141 0.12018,0.02966 0.24048,0.05816 0.3607,0.08578 0.12018,0.02773 0.24043,0.05435 0.36065,0.07989 0.12018,0.02581 0.24048,0.05038 0.36069,0.07415 0.12018,0.02388 0.24048,0.04665 0.3607,0.06853 0.12018,0.02196 0.24044,0.04272 0.36069,0.06263 0.1203,0.02003 0.24048,0.03887 0.3607,0.05689 0.12018,0.0181 0.24043,0.03505 0.36069,0.05115 0.12018,0.01618 0.24044,0.0312 0.36069,0.04549 0.12018,0.01425 0.24048,0.02735 0.3607,0.03975 0.12018,0.01271 0.24043,0.0235 0.36069,0.0339 0.12018,0.0104 0.24044,0.01964 0.36066,0.02812 0.12018,0.0089 0.24047,0.01579 0.36069,0.02234 0.12018,0.0065 0.24044,0.01156 0.36069,0.01656 0.1203,0.005 0.24048,0.0077 0.3607,0.01156 0.12018,0.0026 0.24043,0.0038 0.36069,0.005 0.12018,7.67e-4 0.24044,5.74e-4 0.36069,-5.74e-4 0.12018,-0.0012 0.24048,-0.0038 0.3607,-0.0065 0.12018,-0.0026 0.24043,-0.0077 0.36069,-0.01156 0.12018,-0.005 0.24044,-0.01156 0.36069,-0.01772 0.12018,-0.0065 0.24048,-0.01464 0.3607,-0.0235 0.12018,-0.0089 0.24044,-0.01849 0.36069,-0.02927 0.12018,-0.0104 0.24044,-0.02234 0.3607,-0.03505 0.12018,-0.01271 0.24047,-0.02619 0.36069,-0.04079 0.12018,-0.01464 0.24044,-0.03005 0.36065,-0.04669 0.1203,-0.01656 0.24048,-0.0339 0.3607,-0.05242 0.12018,-0.01849 0.24043,-0.03775 0.36069,-0.05805 0.12018,-0.02041 0.24044,-0.04168 0.3607,-0.0639 0.12029,-0.02234 0.24047,-0.04549 0.36069,-0.06956 0.12018,-0.02427 0.24044,-0.04923 0.36069,-0.07531 0.12018,-0.02619 0.24044,-0.0532 0.3607,-0.08116 0.12018,-0.02812 0.24047,-0.05689 0.36069,-0.08682 0.12018,-0.03005 0.24044,-0.06086 0.36065,-0.09268 0.1203,-0.03197 0.24048,-0.06456 0.3607,-0.0983 0.12018,-0.0339 0.24047,-0.06852 0.36069,-0.104194 0.12018,-0.03582 0.24044,-0.07222 0.3607,-0.109818 0.12018,-0.03775 0.24047,-0.07619 0.36069,-0.115712 0.12018,-0.03952 0.24044,-0.07989 0.36069,-0.121335 0.12018,-0.04141 0.24044,-0.08386 0.36066,-0.127075 0.12018,-0.04333 0.24047,-0.08755 0.36069,-0.132891 0.12018,-0.04526 0.24044,-0.09152 0.3607,-0.138631 0.12018,-0.04719 0.24043,-0.09537 0.36065,-0.144408 0.12018,-0.04907 0.24048,-0.09907 0.36069,-0.150148 0.12018,-0.051 0.24044,-0.103039 0.3607,-0.155887 0.12029,-0.05293 0.24047,-0.106891 0.36069,-0.161627 0.12018,-0.05485 0.24048,-0.110704 0.3607,-0.167404 0.12018,-0.05678 0.24043,-0.114402 0.36069,-0.173144 0.12029,-0.05866 0.24047,-0.118254 0.36069,-0.178921 0.12018,-0.06059 0.24044,-0.122106 0.3607,-0.184661 0.12018,-0.06252 0.24043,-0.125919 0.36069,-0.190401 0.12018,-0.06444 0.24047,-0.129848 0.36069,-0.196178 0.12018,-0.06637 0.24044,-0.133661 0.3607,-0.201917 0.12018,-0.06826 0.24043,-0.137514 0.36069,-0.207657 0.12018,-0.07018 0.24048,-0.141327 0.36069,-0.213435 0.12018,-0.07211 0.24044,-0.14514 0.3607,-0.219174 0.12018,-0.07403 0.24047,-0.148992 0.36069,-0.224952 0.12018,-0.07592 0.24044,-0.152844 0.3607,-0.230692 0.12018,-0.07785 0.24043,-0.156657 0.36069,-0.23643 0.12029,-0.07977 0.24047,-0.16051 0.36069,-0.24217 0.12018,-0.0817 0.24044,-0.164362 0.3607,-0.247948 0.12018,-0.08363 0.24043,-0.168175 0.36069,-0.253688 0.12018,-0.08551 0.24048,-0.171988 0.36069,-0.259465 0.12018,-0.08744 0.24044,-0.17584 0.3607,-0.265205 0.12029,-0.08936 0.24047,-0.179653 0.36069,-0.270944 0.12018,-0.09129 0.24048,-0.183505 0.36069,-0.276721 0.12018,-0.09322 0.24044,-0.187358 0.36066,-0.282462 0.12029,-0.0951 0.24047,-0.19117 0.36069,-0.2882 0.12018,-0.09703 0.24044,-0.195023 0.3607,-0.293978 0.12018,-0.09896 0.24043,-0.198836 0.36065,-0.299718 0.12018,-0.100882 0.24048,-0.202688 0.3607,-0.305457 0.12018,-0.10277 0.24043,-0.206502 0.36069,-0.311197 0.12018,-0.104695 0.24044,-0.210353 0.36065,-0.316974 0.12018,-0.106621 0.24048,-0.214205 0.3607,-0.322714 0.12018,-0.108547 0.24043,-0.218019 0.36065,-0.328492 0.12018,-0.110473 0.24048,-0.22187 0.3607,-0.334231 0.12018,-0.11236 0.24047,-0.225683 0.36069,-0.33997 0.12018,-0.114286 0.24044,-0.229536 0.36066,-0.345748 0.12029,-0.116212 0.24047,-0.233349 0.36069,-0.351488 0.12018,-0.118138 0.24044,-0.237201 0.36069,-0.357226 0.12018,-0.120065 0.24044,-0.241054 0.36066,-0.363005 0.12018,-0.121952 0.24047,-0.244867 0.36069,-0.368744 0.12018,-0.123878 0.24044,-0.24868 0.3607,-0.374484 0.12017,-0.125804 0.24043,-0.252532 0.36069,-0.380261 0.12018,-0.12773 0.24047,-0.256384 0.36069,-0.386001 0.12018,-0.129617 0.24044,-0.260197 0.3607,-0.391756 0.12029,-0.131543 0.24047,-0.264049 0.36069,-0.397506 0.12018,-0.133469 0.24044,-0.267901 0.36069,-0.403261 0.12018,-0.135395 0.24044,-0.271715 0.3607,-0.409012 0.12018,-0.137321 0.24047,-0.275567 0.36069,-0.414767 0.12018,-0.139208 0.24044,-0.27938 0.36069,-0.420518 0.12018,-0.141134 0.24044,-0.283231 0.3607,-0.426272 0.12018,-0.143061 0.24047,-0.287084 0.36069,-0.432024 0.12018,-0.144948 0.24044,-0.290897 0.3607,-0.437778 0.12017,-0.146874 0.24043,-0.294749 0.36069,-0.443533 0.12018,-0.1488 0.24047,-0.298562 0.36069,-0.449284 0.12018,-0.150726 0.24044,-0.302376 0.3607,-0.455023"
       id="path209" />
    <path
       style="fill:none;stroke:#000000;stroke-width:0.451291;stroke-linecap:round;stroke-linejoin:round;stroke-miterlimit:4;stroke-dasharray:none;stroke-opacity:1;marker-start:url(#marker1409);marker-end:url(#TriangleStart)"
       d="M 136.92324,113.12665 V 44.783458"
       id="path207" />
    <path
       style="fill:none;stroke:#000000;stroke-width:0.451291;stroke-linecap:round;stroke-linejoin:round;stroke-miterlimit:4;stroke-dasharray:none;stroke-opacity:1;marker-start:url(#marker1409);marker-end:url(#TriangleStart)"
       d="M 93.857659,90.345582 H 165.63361"
       id="path5134" />
    <circle
       style="fill:#000000;stroke-width:0.451291;stroke-dasharray:none"
       id="path1641"
       cx="117.8292"
       cy="90.526047"
       r="1.0677799" />
    <circle
       style="fill:#000000;stroke-width:0.451291;stroke-dasharray:none"
       id="path1641-6"
       cx="156.05571"
       cy="90.397903"
       r="1.0677799" />
    <text
       xml:space="preserve"
       transform="scale(0.26458333)"
       id="text4237"
       style="white-space:pre;shape-inside:url(#rect4239);display:inline;fill:#000000;stroke-width:1.33417;stroke-dasharray:none" />
    <path
       style="fill:none;stroke:#000000;stroke-width:0.451291;stroke-dasharray:0.902582, 0.451291;stroke-dashoffset:0;stroke-opacity:1;marker-end:url(#Arrow3)"
       d="m 108.21919,109.61795 c 0,0 -4.78365,-10.079841 4.27112,-16.571946"
       id="path4477"
       sodipodi:nodetypes="cc" />
    <path
       style="fill:none;stroke:#000000;stroke-width:0.451291;stroke-dasharray:0.902582, 0.451291;stroke-dashoffset:0;stroke-opacity:1;marker-end:url(#Arrow3)"
       d="m 122.741,111.49724 c 0,0 32.63134,-3.07521 32.97304,-17.767855"
       id="path4581"
       sodipodi:nodetypes="cc" />
    <text
       xml:space="preserve"
       style="font-size:8.15324px;text-align:end;text-anchor:end;fill:#000000;fill-opacity:1;stroke:none;stroke-width:3.85192;stroke-dasharray:none;stroke-dashoffset:0;stroke-opacity:1"
       x="89.932915"
       y="55.749447"
       id="text43227"><tspan
         sodipodi:role="line"
         id="tspan43225"
         style="font-size:8.15324px;fill:#000000;fill-opacity:1;stroke:none;stroke-width:3.85192;stroke-dasharray:none"
         x="89.932915"
         y="55.749447">$y=x^2-1$</tspan></text>
    <text
       xml:space="preserve"
       style="font-size:5.64444px;text-align:end;text-anchor:end;fill:#000000;fill-opacity:1;stroke:none;stroke-width:1;stroke-dasharray:none;stroke-dashoffset:0;stroke-opacity:1"
       x="122.14217"
       y="114.39136"
       id="text43344"><tspan
         sodipodi:role="line"
         id="tspan43342"
         style="font-size:5.64444px;stroke-width:1"
         x="122.14217"
         y="114.39136">$x$-intercepts</tspan></text>
  </g>
</svg>
